<?xml version="1.0" encoding="UTF-8"?>
<svg id="uuid-99dd670e-41a0-4256-a317-b3b298a4d4cd" data-name="Layer 2" xmlns="http://www.w3.org/2000/svg" viewBox="0 0 45.99 30.18">
  <defs>
    <style>
      .uuid-fe719aaa-614c-4383-a1c0-7f1044581712, .uuid-c5388c61-31ee-4638-b3fa-20b8e532eb76 {
        font-family: NotoSerifTC-ExtraLight, 'Noto Serif TC';
        font-size: 5px;
        font-variation-settings: 'wght' 200;
        font-weight: 200;
      }

      .uuid-c5388c61-31ee-4638-b3fa-20b8e532eb76 {
        letter-spacing: -.12em;
      }

      .uuid-a349e17e-d75f-4d4a-ac20-349261774c37 {
        fill: #231f20;
      }

      .uuid-878612e9-65a3-4b46-a80a-03af64e62ec2 {
        letter-spacing: -.05em;
      }

      .uuid-c09971ed-32ff-484e-ab3a-8fe511d9ea48 {
        letter-spacing: 0em;
      }
    </style>
  </defs>
  <g id="uuid-a9fc87ef-92b9-4c70-b015-bf05baffe69a" data-name="main">
    <path class="uuid-a349e17e-d75f-4d4a-ac20-349261774c37" d="M3.62,8.52h.06c.28-.48.64-.85,1.08-1.11.44-.26.94-.39,1.5-.39s1.1.14,1.59.41.92.64,1.28,1.11c.36.47.64,1.02.85,1.65s.31,1.31.31,2.03c0,.76-.11,1.46-.33,2.1-.22.64-.52,1.19-.9,1.66-.38.47-.83.84-1.34,1.1-.51.27-1.05.4-1.62.4s-1.15-.14-1.67-.41c-.52-.27-.94-.63-1.25-1.07l-1.23,1.27h-.55V5.97c0-1.19-.07-2.01-.21-2.45-.03-.09-.07-.17-.11-.23-.04-.06-.1-.12-.19-.16-.08-.04-.19-.08-.33-.11-.14-.03-.32-.07-.55-.1v-.65l3.62-.76v7.01ZM3.65,13.12c0,.47.06.9.17,1.3.11.4.27.74.46,1.04.19.29.43.52.69.68.27.16.56.25.89.25.65,0,1.14-.35,1.47-1.05.33-.7.5-1.72.5-3.08s-.16-2.32-.49-3.01c-.33-.69-.82-1.04-1.48-1.04-.39,0-.75.12-1.07.37s-.58.59-.77,1.04c-.25.61-.37,1.38-.37,2.3v1.2Z"/>
    <path class="uuid-a349e17e-d75f-4d4a-ac20-349261774c37" d="M19.62,15.51c-.98,1.3-2.2,1.96-3.67,1.96-.67,0-1.27-.12-1.82-.37s-1.01-.59-1.4-1.04c-.39-.45-.69-.98-.9-1.61-.22-.62-.32-1.31-.32-2.07s.11-1.5.34-2.16.55-1.22.96-1.69c.41-.48.9-.85,1.47-1.11.57-.27,1.19-.4,1.87-.4,1.14,0,2.03.36,2.66,1.08.64.72.95,1.74.95,3.04,0,.2-.03.33-.08.37-.05.04-.2.07-.45.07h-5.2c-.04.11-.06.32-.06.63,0,1.24.23,2.22.69,2.95.46.72,1.08,1.08,1.87,1.08.45,0,.9-.12,1.35-.36.45-.24.88-.58,1.3-1.03l.45.67ZM16.49,10.51c.43,0,.71-.03.83-.09.12-.06.19-.19.19-.41,0-.56-.13-1.01-.4-1.37s-.61-.53-1.02-.53c-.46,0-.88.23-1.24.67-.36.45-.6,1.02-.7,1.72h2.34Z"/>
    <path class="uuid-a349e17e-d75f-4d4a-ac20-349261774c37" d="M24.5,14.18c0,.52.01.93.04,1.23.03.3.09.53.18.68s.23.26.42.31.44.09.77.11v.76h-5.09v-.76c.31-.03.56-.06.75-.11s.33-.15.44-.3c.1-.15.17-.37.2-.65.03-.28.05-.66.05-1.14v-2.38c0-.75-.01-1.35-.03-1.81-.02-.46-.05-.78-.08-.94-.03-.17-.08-.3-.13-.41-.05-.11-.13-.19-.24-.25-.11-.06-.24-.1-.4-.11-.16-.02-.37-.03-.61-.03v-.65l3.12-.72.21,1.67h.06c.36-.53.78-.94,1.26-1.24.48-.29,1.02-.44,1.6-.44.69,0,1.25.11,1.67.33s.8.59,1.14,1.11c.18.29.34.67.48,1.13.14.46.21,1.1.21,1.91v2.68c0,.52.01.93.04,1.23.03.3.09.53.18.68.09.16.23.26.41.31s.43.09.74.11v.76h-5.05v-.76c.32-.01.58-.05.77-.1.19-.06.33-.16.43-.31.1-.15.16-.37.19-.66.03-.28.05-.66.05-1.13v-2.58c0-.65-.03-1.19-.1-1.63-.06-.44-.17-.8-.31-1.07-.15-.27-.34-.47-.57-.59-.24-.12-.53-.18-.89-.18s-.64.11-.89.34c-.25.23-.46.54-.65.95-.1.23-.18.52-.25.88-.07.36-.1.74-.1,1.13v2.62Z"/>
    <path class="uuid-a349e17e-d75f-4d4a-ac20-349261774c37" d="M36.25,14.33c0,.49.02.88.06,1.17.04.29.12.5.23.66s.29.25.52.29c.23.04.53.07.9.07v.76h-5.39v-.76c.32-.03.58-.06.78-.11s.34-.15.44-.3c.1-.15.16-.37.19-.66.03-.28.04-.67.04-1.15v-2.32c0-.79-.02-1.41-.05-1.88-.03-.47-.1-.83-.21-1.08-.11-.25-.26-.42-.46-.5-.2-.08-.46-.12-.78-.12v-.67l3.23-.7.26,2.18h.06c.29-.67.67-1.2,1.15-1.6s.97-.59,1.5-.59c.41,0,.74.12,1,.36.26.24.39.54.39.91,0,.41-.1.75-.3,1.03-.2.28-.47.42-.82.42-.16,0-.31-.04-.44-.11-.13-.08-.24-.16-.35-.26-.1-.1-.2-.18-.31-.27-.1-.08-.21-.12-.31-.12-.2,0-.4.16-.58.47s-.33.74-.45,1.27c-.09.38-.16.81-.21,1.28s-.08.95-.08,1.42v.91Z"/>
    <path class="uuid-a349e17e-d75f-4d4a-ac20-349261774c37" d="M44.28,14.16c0,.51.02.91.05,1.22.03.3.1.54.19.7.1.17.24.28.42.33.18.06.43.09.74.1v.76h-5.09v-.76c.3-.01.55-.05.73-.12.19-.07.33-.18.44-.34.1-.16.17-.38.21-.67.04-.29.06-.65.06-1.09v-2.34c0-.73-.01-1.34-.03-1.81-.02-.47-.05-.8-.08-.98-.05-.32-.17-.53-.36-.63-.19-.1-.53-.15-1.03-.15v-.65l3.75-.72v7.14Z"/>
    <text class="uuid-fe719aaa-614c-4383-a1c0-7f1044581712" transform="translate(14.24 24.79)"><tspan class="uuid-c09971ed-32ff-484e-ab3a-8fe511d9ea48" x="0" y="0">べ</tspan><tspan class="uuid-878612e9-65a3-4b46-a80a-03af64e62ec2" x="5" y="0" xml:space="preserve"> ん</tspan></text>
    <text class="uuid-c5388c61-31ee-4638-b3fa-20b8e532eb76" transform="translate(29.22 24.94)"><tspan x="0" y="0">り</tspan></text>
    <path class="uuid-a349e17e-d75f-4d4a-ac20-349261774c37" d="M44.57,4.24c-.42-.12-.9-.19-1.41-.19s-.99.07-1.41.19c.12-.42.19-.9.19-1.41s-.07-.99-.19-1.41c.42.12.9.19,1.41.19s.99-.07,1.41-.19c-.12.42-.19.9-.19,1.41s.07.99.19,1.41ZM43.16,0c-1.57,0-2.83,1.27-2.83,2.83s1.27,2.83,2.83,2.83,2.83-1.27,2.83-2.83-1.27-2.83-2.83-2.83Z"/>
  </g>
</svg>